# xmcd
#
# Track frame offsets:
# 150
# 28635
# 49035
# 61467
# 77600
# 97939
# 112308
# 129001
# 149487
# 166920
# 184224
# 199661
# 218436
# 235497
# 252147
# 267106
# 284161
# 304098
# 320499
#
# Disc length: 4474 seconds
#
#
# Revision: 0
# Processed by: cddbd v1.5.1PL2 Copyright (c) Steve Scherf et al.
# Submitted via: FreeRIP 2.945 
#
DISCID=12117813
DTITLE=Grupo Rodeio - Grupo Rodeio
DYEAR=1900
DGENRE=Gaúcha
TTITLE0=Grupo Rodeio 01
TTITLE1=Grupo Rodeio 02
TTITLE2=Grupo Rodeio 03
TTITLE3=Grupo Rodeio 04
TTITLE4=Grupo Rodeio 05
TTITLE5=Grupo Rodeio 06
TTITLE6=Grupo Rodeio 07
TTITLE7=Grupo Rodeio 08
TTITLE8=Grupo Rodeio 09
TTITLE9=Grupo Rodeio 10
TTITLE10=Grupo Rodeio 11
TTITLE11=Grupo Rodeio 12
TTITLE12=Grupo Rodeio 13
TTITLE13=Grupo Rodeio 14
TTITLE14=Grupo Rodeio 15
TTITLE15=Grupo Rodeio 16
TTITLE16=Grupo Rodeio 17
TTITLE17=Grupo Rodeio 18
TTITLE18=Grupo Rodeio 19
EXTD=
EXTT0=
EXTT1=
EXTT2=
EXTT3=
EXTT4=
EXTT5=
EXTT6=
EXTT7=
EXTT8=
EXTT9=
EXTT10=
EXTT11=
EXTT12=
EXTT13=
EXTT14=
EXTT15=
EXTT16=
EXTT17=
EXTT18=
PLAYORDER=
